<mxfile host="app.diagrams.net" agent="Mozilla/5.0 (Windows NT 10.0; Win64; x64) AppleWebKit/537.36 (KHTML, like Gecko) Chrome/131.0.0.0 Safari/537.36" version="26.0.5">
  <diagram name="Page-1" id="ToMMOmg-LSry2DD01N7p">
    <mxGraphModel dx="1674" dy="738" grid="1" gridSize="10" guides="1" tooltips="1" connect="1" arrows="1" fold="1" page="1" pageScale="1" pageWidth="827" pageHeight="1169" math="0" shadow="0">
      <root>
        <mxCell id="0" />
        <mxCell id="1" parent="0" />
        <mxCell id="pp_a_ERpGIkYEQSrLHDJ-2" value="" style="rounded=1;whiteSpace=wrap;html=1;" vertex="1" parent="1">
          <mxGeometry x="160" y="25" width="490" height="560" as="geometry" />
        </mxCell>
        <mxCell id="pp_a_ERpGIkYEQSrLHDJ-5" style="edgeStyle=orthogonalEdgeStyle;rounded=0;orthogonalLoop=1;jettySize=auto;html=1;exitX=1;exitY=0.3333333333333333;exitDx=0;exitDy=0;exitPerimeter=0;" edge="1" parent="1" source="pp_a_ERpGIkYEQSrLHDJ-1" target="pp_a_ERpGIkYEQSrLHDJ-4">
          <mxGeometry relative="1" as="geometry" />
        </mxCell>
        <mxCell id="pp_a_ERpGIkYEQSrLHDJ-1" value="Actor" style="shape=umlActor;verticalLabelPosition=bottom;verticalAlign=top;html=1;outlineConnect=0;" vertex="1" parent="1">
          <mxGeometry x="100" y="260" width="30" height="60" as="geometry" />
        </mxCell>
        <mxCell id="pp_a_ERpGIkYEQSrLHDJ-3" value="Automated Penetration Tester" style="text;html=1;align=center;verticalAlign=middle;resizable=0;points=[];autosize=1;strokeColor=none;fillColor=none;" vertex="1" parent="1">
          <mxGeometry x="440" y="40" width="180" height="30" as="geometry" />
        </mxCell>
        <mxCell id="pp_a_ERpGIkYEQSrLHDJ-7" style="edgeStyle=orthogonalEdgeStyle;rounded=0;orthogonalLoop=1;jettySize=auto;html=1;exitX=1;exitY=0.5;exitDx=0;exitDy=0;entryX=0;entryY=0.5;entryDx=0;entryDy=0;" edge="1" parent="1" source="pp_a_ERpGIkYEQSrLHDJ-4" target="pp_a_ERpGIkYEQSrLHDJ-6">
          <mxGeometry relative="1" as="geometry" />
        </mxCell>
        <mxCell id="pp_a_ERpGIkYEQSrLHDJ-4" value="Select File" style="ellipse;whiteSpace=wrap;html=1;" vertex="1" parent="1">
          <mxGeometry x="190" y="120" width="120" height="80" as="geometry" />
        </mxCell>
        <mxCell id="pp_a_ERpGIkYEQSrLHDJ-9" style="edgeStyle=orthogonalEdgeStyle;rounded=0;orthogonalLoop=1;jettySize=auto;html=1;exitX=0.5;exitY=1;exitDx=0;exitDy=0;entryX=0.5;entryY=0;entryDx=0;entryDy=0;" edge="1" parent="1" source="pp_a_ERpGIkYEQSrLHDJ-6" target="pp_a_ERpGIkYEQSrLHDJ-8">
          <mxGeometry relative="1" as="geometry" />
        </mxCell>
        <mxCell id="pp_a_ERpGIkYEQSrLHDJ-6" value="Select Desired Tests" style="ellipse;whiteSpace=wrap;html=1;" vertex="1" parent="1">
          <mxGeometry x="345" y="120" width="120" height="80" as="geometry" />
        </mxCell>
        <mxCell id="pp_a_ERpGIkYEQSrLHDJ-11" style="edgeStyle=orthogonalEdgeStyle;rounded=0;orthogonalLoop=1;jettySize=auto;html=1;exitX=0.5;exitY=1;exitDx=0;exitDy=0;entryX=0.5;entryY=0;entryDx=0;entryDy=0;" edge="1" parent="1" source="pp_a_ERpGIkYEQSrLHDJ-8" target="pp_a_ERpGIkYEQSrLHDJ-10">
          <mxGeometry relative="1" as="geometry" />
        </mxCell>
        <mxCell id="pp_a_ERpGIkYEQSrLHDJ-8" value="Run Test" style="ellipse;whiteSpace=wrap;html=1;" vertex="1" parent="1">
          <mxGeometry x="345" y="240" width="120" height="80" as="geometry" />
        </mxCell>
        <mxCell id="pp_a_ERpGIkYEQSrLHDJ-10" value="View Output" style="ellipse;whiteSpace=wrap;html=1;" vertex="1" parent="1">
          <mxGeometry x="345" y="360" width="120" height="80" as="geometry" />
        </mxCell>
        <mxCell id="pp_a_ERpGIkYEQSrLHDJ-12" value="User" style="text;html=1;align=center;verticalAlign=middle;resizable=0;points=[];autosize=1;strokeColor=none;fillColor=none;" vertex="1" parent="1">
          <mxGeometry x="90" y="330" width="50" height="30" as="geometry" />
        </mxCell>
        <mxCell id="pp_a_ERpGIkYEQSrLHDJ-15" style="edgeStyle=orthogonalEdgeStyle;rounded=0;orthogonalLoop=1;jettySize=auto;html=1;exitX=0;exitY=0.3333333333333333;exitDx=0;exitDy=0;exitPerimeter=0;entryX=1;entryY=0.5;entryDx=0;entryDy=0;" edge="1" parent="1" source="pp_a_ERpGIkYEQSrLHDJ-13" target="pp_a_ERpGIkYEQSrLHDJ-10">
          <mxGeometry relative="1" as="geometry" />
        </mxCell>
        <mxCell id="pp_a_ERpGIkYEQSrLHDJ-13" value="Actor" style="shape=umlActor;verticalLabelPosition=bottom;verticalAlign=top;html=1;outlineConnect=0;" vertex="1" parent="1">
          <mxGeometry x="720" y="380" width="30" height="60" as="geometry" />
        </mxCell>
        <mxCell id="pp_a_ERpGIkYEQSrLHDJ-14" value="Security Engineer" style="text;html=1;align=center;verticalAlign=middle;resizable=0;points=[];autosize=1;strokeColor=none;fillColor=none;" vertex="1" parent="1">
          <mxGeometry x="675" y="450" width="120" height="30" as="geometry" />
        </mxCell>
      </root>
    </mxGraphModel>
  </diagram>
</mxfile>
